<svg xmlns="http://www.w3.org/2000/svg" viewBox="0 0 240 240">
  <defs>
    <clipPath id="circle"><circle cx="120" cy="120" r="120"/></clipPath>
    <linearGradient id="bg" x1="0" y1="0" x2="1" y2="1">
      <stop offset="0" stop-color="#8f7bff"/>
      <stop offset="1" stop-color="#5d49d6"/>
    </linearGradient>
    <pattern id="plaid" width="18" height="18" patternUnits="userSpaceOnUse">
      <rect width="18" height="18" fill="#232c33"/>
      <rect x="0" y="6" width="18" height="3" fill="#3a4a54" opacity="0.7"/>
      <rect x="6" y="0" width="3" height="18" fill="#3a4a54" opacity="0.7"/>
      <rect x="0" y="7" width="18" height="1" fill="#5e8291" opacity="0.8"/>
      <rect x="7" y="0" width="1" height="18" fill="#5e8291" opacity="0.8"/>
    </pattern>
  </defs>
  <g clip-path="url(#circle)">
    <rect width="240" height="240" fill="url(#bg)"/>

    <rect x="106" y="150" width="28" height="26" fill="#e2a877"/>
    <path d="M106 150 h28 v8 q-14 7 -28 0 z" fill="#cf9166"/>

    <path d="M84 240 v-34 q0 -18 20 -24 q16 10 32 0 q20 6 20 24 v34 z" fill="#252c3e"/>
    <rect x="98" y="162" width="44" height="17" rx="8" fill="#2b3247"/>

    <path d="M36 240 q0 -52 40 -62 q10 -3 16 -2 l-6 64 z" fill="url(#plaid)"/>
    <path d="M204 240 q0 -52 -40 -62 q-10 -3 -16 -2 l6 64 z" fill="url(#plaid)"/>
    <path d="M92 176 l-6 64" stroke="#161d22" stroke-width="2" fill="none"/>
    <path d="M148 176 l6 64" stroke="#161d22" stroke-width="2" fill="none"/>

    <ellipse cx="74" cy="104" rx="9" ry="13" fill="#e2a877"/>
    <ellipse cx="166" cy="104" rx="9" ry="13" fill="#e2a877"/>

    <path d="M120 44 c30 0 45 20 45 48 c0 22 -10 38 -22 46 c-8 5 -15 8 -23 8 c-8 0 -15 -3 -23 -8 c-12 -8 -22 -24 -22 -46 c0 -28 15 -48 45 -48 z" fill="#eab68b"/>

    <ellipse cx="94" cy="126" rx="6" ry="3.5" fill="#e79466" opacity="0.3"/>
    <ellipse cx="146" cy="126" rx="6" ry="3.5" fill="#e79466" opacity="0.3"/>

    <path d="M120 36 c-34 0 -50 20 -50 50 c0 8 2 16 5 22 c1 -20 6 -30 13 -36 c8 12 20 16 32 16 c12 0 24 -4 32 -16 c7 6 12 16 13 36 c3 -6 5 -14 5 -22 c0 -30 -16 -50 -50 -50 z" fill="#221a15"/>
    <path d="M92 52 q12 -10 32 -8" stroke="#3a2d24" stroke-width="6" fill="none" stroke-linecap="round"/>

    <path d="M91 93 q11 -8 21 -6" stroke="#221a15" stroke-width="5" fill="none" stroke-linecap="round"/>
    <path d="M128 94 q10 -2 21 5" stroke="#221a15" stroke-width="5" fill="none" stroke-linecap="round"/>

    <ellipse cx="104" cy="112" rx="5.5" ry="6" fill="#241b16"/>
    <ellipse cx="136" cy="112" rx="5.5" ry="6" fill="#241b16"/>
    <circle cx="106" cy="109" r="1.8" fill="#ffffff" opacity="0.85"/>
    <circle cx="138" cy="109" r="1.8" fill="#ffffff" opacity="0.85"/>

    <path d="M120 117 q-3 7 1 11" stroke="#d0946a" stroke-width="4" fill="none" stroke-linecap="round"/>
    <path d="M106 138 h28" stroke="#7e4531" stroke-width="5.5" fill="none" stroke-linecap="round"/>
  </g>
</svg>
